# xmcd CD database file
#
# Track frame offsets:
#	150
#	11702
#	21877
#	30567
#	43137
#	54422
#	65135
#	76420
#	87240
#	97915
#	109800
#	121402
#	133000
#	141885
#	151817
#	162892
#	174495
#	185215
#	196477
#	206872
#
# Disc length: 2895 seconds
#
# Revision: 2
# Processed by: cddbd v1.5.2PL0 Copyright (c) Steve Scherf et al.
# Submitted via: CDex 1.70beta2
#
DISCID=1a0b4d14
DTITLE=Patsy Cline - Patsy Cline
DYEAR=1998
DGENRE=Country
TTITLE0=Walkin' after midnight
TTITLE1=Three cigarettes (in an ashtray)
TTITLE2=Ain't no wheels on this ship
TTITLE3=Fingerprints
TTITLE4=Cry not for me
TTITLE5=I can see an angel
TTITLE6=Just out of reach
TTITLE7=I cried all the way to the altar
TTITLE8=I don't wanta
TTITLE9=If i could only stay asleep
TTITLE10=In care of the blues
TTITLE11=I've loved and lost again
TTITLE12=Try again
TTITLE13=Turn the cards slowly
TTITLE14=Stop the world (and let me off)
TTITLE15=Let the teardrops fall
TTITLE16=Honky Tonk Merry go round
TTITLE17=Hungry for love
TTITLE18=I love you honey
TTITLE19=Walkin' dream
EXTD=YEAR: 1998
EXTT0=
EXTT1=
EXTT2=
EXTT3=
EXTT4=
EXTT5=
EXTT6=
EXTT7=
EXTT8=
EXTT9=
EXTT10=
EXTT11=
EXTT12=
EXTT13=
EXTT14=
EXTT15=
EXTT16=
EXTT17=
EXTT18=
EXTT19=
PLAYORDER=
